<?xml version="1.0" standalone="no"?>
<!DOCTYPE svg PUBLIC "-//W3C//DTD SVG 20010904//EN"
 "http://www.w3.org/TR/2001/REC-SVG-20010904/DTD/svg10.dtd">
<svg version="1.0" xmlns="http://www.w3.org/2000/svg"
 width="260.000000pt" height="260.000000pt" viewBox="0 0 260.000000 260.000000"
 preserveAspectRatio="xMidYMid meet">
<metadata>
Created by potrace 1.11, written by Peter Selinger 2001-2013
</metadata>
<g transform="translate(0.000000,260.000000) scale(0.100000,-0.100000)"
fill="#000000" stroke="none">
<path d="M29 1867 c-10 -11 -19 -30 -20 -41 0 -12 -1 -217 -1 -456 l0 -434 22
-18 c28 -23 42 -23 70 0 l23 19 0 449 c0 316 -3 455 -11 470 -16 31 -59 36
-83 11z"/>
<path d="M859 1869 l-22 -19 1 -528 c0 -290 1 -537 1 -549 2 -51 67 -74 99
-35 17 23 17 1100 -1 1123 -20 25 -54 29 -78 8z"/>
<path d="M1274 1865 l-24 -24 0 -535 c0 -385 3 -542 12 -561 8 -19 19 -25 42
-25 64 0 61 -35 61 566 0 353 -3 554 -10 567 -18 35 -53 40 -81 12z"/>
<path d="M436 1858 c-12 -19 -14 -97 -14 -472 0 -425 1 -449 19 -467 23 -23
47 -24 74 -3 19 14 20 27 21 467 1 497 1 497 -56 497 -20 0 -34 -8 -44 -22z"/>
<path d="M1686 1681 c-16 -18 -18 -51 -18 -382 0 -363 0 -363 22 -381 27 -22
39 -22 68 -2 l22 15 0 369 0 369 -22 15 c-30 21 -51 20 -72 -3z"/>
<path d="M2113 1690 c-12 -5 -23 -21 -26 -37 -3 -15 -5 -224 -5 -463 0 -477
-1 -470 59 -470 54 0 54 -1 54 495 0 440 -1 457 -20 471 -21 16 -31 16 -62 4z"/>
<path d="M2520 1682 l-23 -19 -1 -444 c-2 -480 0 -499 48 -499 60 0 56 -31 56
486 0 458 -1 474 -19 484 -27 14 -35 13 -61 -8z"/>
</g>
</svg>
