<?xml version="1.0" encoding="utf-8"?>
<!-- Generator: Adobe Illustrator 16.2.1, SVG Export Plug-In . SVG Version: 6.00 Build 0)  -->
<!DOCTYPE svg PUBLIC "-//W3C//DTD SVG 1.1//EN" "http://www.w3.org/Graphics/SVG/1.1/DTD/svg11.dtd">
<svg version="1.1" id="Layer_1" xmlns="http://www.w3.org/2000/svg" xmlns:xlink="http://www.w3.org/1999/xlink" x="0px" y="0px"
	 width="358.111px" height="211.981px" viewBox="0 0 358.111 211.981" enable-background="new 0 0 358.111 211.981"
	 xml:space="preserve">
<g>
	<path fill="#FFFFFF" d="M141.496,64.572c0-1.568,0-2.889,0-3.975h0.016V55.65c0.004-0.465,0.004-0.938,0-1.419v-3.085
		c0-0.047,0.006-0.09,0.006-0.137c0-3.188-2.584-5.773-5.771-5.773s-5.773,2.586-5.773,5.773v9.588h0.023c0,1.086,0,2.406,0,3.975
		c0,21.285,0,82.832,0,82.832c0,1.576,0,2.9,0,3.99h-0.023v9.588c0,3.188,2.586,5.773,5.773,5.773s5.771-2.586,5.771-5.773
		c0-0.047-0.006-0.09-0.006-0.137v-3.104c0.004-0.48,0.004-0.953,0-1.418v-4.93h-0.016c0-1.09,0-2.414,0-3.99
		C141.496,147.404,141.496,85.857,141.496,64.572z"/>
	<path fill="#FFFFFF" d="M204.118,44.268c-3.473-0.311-20.604-1.002-24.672-1v0.001c-0.122-0.008-0.243-0.019-0.366-0.019
		c-3.188,0-5.773,2.585-5.773,5.775v113.957c0,3.188,2.586,5.773,5.773,5.773c0.123,0,0.244-0.012,0.366-0.02v0.002
		c4.068,0.002,21.199-0.689,24.672-1c24.047-2.15,24.047-19.752,24.047-21.463c0-0.83,0-79.713,0-80.543
		C228.165,64.021,228.165,46.417,204.118,44.268z M216.62,146.404c0,2.684-2.088,8.018-10.213,9.852
		c-5.512,1.242-21.561,0.977-21.561,0.977V54.773c0,0,16.049-0.266,21.561,0.977c8.125,1.834,10.213,7.168,10.213,9.854
		C216.62,65.627,216.62,146.381,216.62,146.404z"/>
	<path fill="#FFFFFF" d="M290.833,43.379c-0.703-0.062-2.781-0.129-3.4-0.129c0,0,0,0-0.002,0l0,0c-0.619,0-2.697,0.066-3.4,0.129
		c-24.047,2.15-24.047,19.753-24.047,21.464c0,0,0,96.092,0,96.139c0,3.188,2.584,5.773,5.773,5.773
		c3.188,0,5.771-2.586,5.771-5.773V64.715c0-2.686,2.088-8.02,10.213-9.854c1.377-0.311,3.725-0.676,5.689-0.676
		c1.967,0,4.314,0.366,5.691,0.676c8.125,1.834,10.213,7.168,10.213,9.854v96.268c0,3.188,2.584,5.773,5.771,5.773
		c3.189,0,5.773-2.586,5.773-5.773c0-0.047,0-96.139,0-96.139C314.879,63.133,314.879,45.529,290.833,43.379z"/>
	<path fill="#FFFFFF" d="M92.412,45.244c-3.188,0-5.771,2.586-5.771,5.773v96.268c0,2.686-2.088,8.02-10.213,9.852
		c-1.377,0.311-3.725,0.678-5.691,0.678c-1.965,0-4.312-0.367-5.689-0.678c-8.125-1.832-10.213-7.166-10.213-9.852V51.018
		c0-3.188-2.584-5.773-5.771-5.773c-3.189,0-5.773,2.586-5.773,5.773c0,0.045,0,96.139,0,96.139c0,1.711,0,19.314,24.047,21.463
		c0.703,0.062,2.781,0.129,3.4,0.129l0,0c0.002,0,0.002,0,0.002,0c0.619,0,2.697-0.066,3.4-0.129
		c24.047-2.148,24.047-19.752,24.047-21.463c0,0,0-96.094,0-96.139C98.186,47.83,95.602,45.244,92.412,45.244z"/>
</g>
</svg>
