<?xml version="1.0" encoding="utf-8"?>
<!-- Generator: Adobe Illustrator 16.2.1, SVG Export Plug-In . SVG Version: 6.00 Build 0)  -->
<!DOCTYPE svg PUBLIC "-//W3C//DTD SVG 1.1//EN" "http://www.w3.org/Graphics/SVG/1.1/DTD/svg11.dtd">
<svg version="1.1" id="Layer_1" xmlns="http://www.w3.org/2000/svg" xmlns:xlink="http://www.w3.org/1999/xlink" x="0px" y="0px"
	 width="358.111px" height="211.981px" viewBox="0 0 358.111 211.981" enable-background="new 0 0 358.111 211.981"
	 xml:space="preserve">
<g>
	<path fill="#FFFFFF" d="M141.46,64.566c0-1.568,0-2.887,0-3.973h0.016v-4.949c0.006-0.463,0.006-0.938,0-1.418v-3.084
		c0.002-0.047,0.008-0.09,0.008-0.137c0-3.188-2.584-5.773-5.773-5.773c-3.188,0-5.771,2.586-5.771,5.773v9.588h0.021
		c0,1.086,0,2.404,0,3.973c0,21.287,0,82.831,0,82.831c0,1.578,0,2.902,0,3.99h-0.021v9.588c0,3.189,2.584,5.773,5.771,5.773
		c3.189,0,5.773-2.584,5.773-5.773c0-0.045-0.006-0.09-0.008-0.135v-3.104c0.006-0.48,0.006-0.953,0-1.418v-4.932h-0.016
		c0-1.088,0-2.412,0-3.99C141.46,147.397,141.46,85.854,141.46,64.566z"/>
	<path fill="#FFFFFF" d="M184.794,64.566c0-1.568,0-2.887,0-3.973h0.016v-4.949c0.006-0.463,0.006-0.938,0-1.418v-3.084
		c0.002-0.047,0.008-0.09,0.008-0.137c0-3.188-2.584-5.773-5.773-5.773c-3.188,0-5.771,2.586-5.771,5.773v9.588h0.021
		c0,1.086,0,2.404,0,3.973c0,21.287,0,82.831,0,82.831c0,1.578,0,2.902,0,3.99h-0.021v9.588c0,3.189,2.584,5.773,5.771,5.773
		c3.189,0,5.773-2.584,5.773-5.773c0-0.045-0.006-0.09-0.008-0.135v-3.104c0.006-0.48,0.006-0.953,0-1.418v-4.932h-0.016
		c0-1.088,0-2.412,0-3.99C184.794,147.397,184.794,85.854,184.794,64.566z"/>
	<path fill="#FFFFFF" d="M54.792,64.566c0-1.568,0-2.887,0-3.973h0.016v-4.949c0.006-0.463,0.006-0.938,0-1.418v-3.084
		c0.002-0.047,0.008-0.09,0.008-0.137c0-3.188-2.584-5.773-5.773-5.773c-3.188,0-5.771,2.586-5.771,5.773v9.588h0.021
		c0,1.086,0,2.404,0,3.973c0,21.287,0,63.489,0,63.489c0,1.576,0,2.9,0,3.99h-0.021v9.588c0,3.188,2.584,5.773,5.771,5.773
		c3.189,0,5.773-2.586,5.773-5.773c0-0.047-0.006-0.09-0.008-0.137v-3.102c0.006-0.48,0.006-0.955,0-1.418v-4.932h-0.016
		c0-1.09,0-2.414,0-3.99C54.792,128.056,54.792,85.854,54.792,64.566z"/>
	<path fill="#FFFFFF" d="M98.126,64.566c0-1.568,0-2.887,0-3.973h0.016v-4.949c0.006-0.463,0.006-0.938,0-1.418v-3.084
		c0.002-0.047,0.008-0.09,0.008-0.137c0-3.188-2.584-5.773-5.773-5.773c-3.188,0-5.771,2.586-5.771,5.773v9.588h0.021
		c0,1.086,0,2.404,0,3.973c0,21.287,0,63.489,0,63.489c0,1.576,0,2.9,0,3.99h-0.021v9.588c0,3.188,2.584,5.773,5.771,5.773
		c3.189,0,5.773-2.586,5.773-5.773c0-0.047-0.006-0.09-0.008-0.137v-3.102c0.006-0.48,0.006-0.955,0-1.418v-4.932h-0.016
		c0-1.09,0-2.414,0-3.99C98.126,128.056,98.126,85.854,98.126,64.566z"/>
	<path fill="#FFFFFF" d="M271.486,83.904c0-1.566,0-2.887,0-3.973h0.016v-4.947c0.004-0.465,0.004-0.938,0-1.418V70.48
		c0-0.047,0.006-0.09,0.006-0.137c0-3.188-2.584-5.773-5.771-5.773s-5.773,2.586-5.773,5.773v9.588h0.023c0,1.086,0,2.406,0,3.973
		c0,21.287,0,63.489,0,63.489c0,1.578,0,2.902,0,3.99h-0.023v9.588c0,3.189,2.586,5.773,5.773,5.773s5.771-2.584,5.771-5.773
		c0-0.045-0.006-0.09-0.006-0.135v-3.104c0.004-0.48,0.004-0.955,0-1.418v-4.932h-0.016c0-1.088,0-2.412,0-3.99
		C271.486,147.394,271.486,105.191,271.486,83.904z"/>
	<path fill="#FFFFFF" d="M228.107,83.904c0-1.566,0-2.887,0-3.973h0.016v-4.947c0.004-0.465,0.004-0.938,0-1.418V70.48
		c0-0.047,0.006-0.09,0.006-0.137c0-3.188-2.584-5.773-5.771-5.773s-5.773,2.586-5.773,5.773v9.588h0.023c0,1.086,0,2.406,0,3.973
		c0,21.287,0,44.151,0,44.151c0,1.576,0,2.9,0,3.99h-0.023v9.588c0,3.188,2.586,5.773,5.773,5.773s5.771-2.586,5.771-5.773
		c0-0.047-0.006-0.09-0.006-0.137v-3.102c0.004-0.48,0.004-0.955,0-1.418v-4.932h-0.016c0-1.09,0-2.414,0-3.99
		C228.107,128.056,228.107,105.191,228.107,83.904z"/>
	<path fill="#FFFFFF" d="M314.82,83.904c0-1.566,0-2.887,0-3.973h0.016v-4.947c0.004-0.465,0.004-0.938,0-1.418V70.48
		c0-0.047,0.006-0.09,0.006-0.137c0-3.188-2.584-5.773-5.771-5.773s-5.773,2.586-5.773,5.773v9.588h0.023c0,1.086,0,2.406,0,3.973
		c0,21.287,0,63.489,0,63.489c0,1.578,0,2.902,0,3.99h-0.023v9.588c0,3.189,2.586,5.773,5.773,5.773s5.771-2.584,5.771-5.773
		c0-0.045-0.006-0.09-0.006-0.135v-3.104c0.004-0.48,0.004-0.955,0-1.418v-4.932h-0.016c0-1.088,0-2.412,0-3.99
		C314.82,147.394,314.82,105.191,314.82,83.904z"/>
</g>
</svg>
